<svg id="Campaigns" xmlns="http://www.w3.org/2000/svg" viewBox="0 0 256 256" style="background: #fff;"><defs><style>.cls-1{fill:#1d9fd0;}</style></defs><title>Campaigns</title><circle class="cls-1" cx="145.55" cy="88.59" r="5.21" transform="translate(5.47 185.6) rotate(-66.03)"/><path class="cls-1" d="M161.4,52.88A82.21,82.21,0,1,0,203.12,161.4,82.21,82.21,0,0,0,161.4,52.88Zm-7.23,16.33a41.14,41.14,0,0,1,2.39,8.69l-10.45-4.65A41.14,41.14,0,0,1,154.16,69.22ZM85.8,158.37l6.43-14.45,18.48-7.65-5.85,20Zm16.34,28-.05,0s-2.8-9.81,2.42-21.56a13.49,13.49,0,0,0,5.06,4.66,14.15,14.15,0,0,0,7,.68C111.3,181.88,102.14,186.37,102.14,186.37ZM117.53,168l-12.07-5.37,1.31-2.94,12.07,5.37Zm16.34,11.74L122.65,164.2l10.95-17.75,6.7,18.85Zm-14.19-16.87-12-5.32S118,120.75,125.94,99.94l24.33,10.82C140.1,130.56,119.69,162.88,119.69,162.88Zm33.87-58.93c-.57,1.28-1.23,2.68-2,4.17L127,97.18c.61-1.54,1.21-3,1.78-4.25A44.48,44.48,0,0,1,143.4,75.1L157,81.15A44.48,44.48,0,0,1,153.56,103.95Z"/><path class="cls-1" d="M0,0V256H256V0ZM210.52,164.69A90.31,90.31,0,1,1,164.69,45.48,90.31,90.31,0,0,1,210.52,164.69Z"/></svg>