<svg id="Settings" xmlns="http://www.w3.org/2000/svg" viewBox="0 0 256 256" style="background: #fff;"><defs><style>.cls-1{fill:#1d9fd0;}</style></defs><title>Settings</title><path class="cls-1" d="M218.88,69.25H37.13V192H218.88Zm-124.34,71V178H89.25V140.22a10.55,10.55,0,0,1,0-20.44V82h5.28v37.78a10.55,10.55,0,0,1,0,20.44Zm36.11-27.45V178h-5.28V112.77a10.55,10.55,0,0,1,0-20.44V82h5.28V92.33a10.55,10.55,0,0,1,0,20.44Zm36.11,54.9V178h-5.28V167.67a10.55,10.55,0,0,1,0-20.44V82h5.28v65.23a10.55,10.55,0,0,1,0,20.44Z"/><path class="cls-1" d="M0,0V256H256V0ZM227.88,201H28.13V60.25H227.88Z"/></svg>