<svg id="Stations" xmlns="http://www.w3.org/2000/svg" viewBox="0 0 256 256" style="background: #fff;"><defs><style>.cls-1{fill:#1d9fd0;}</style></defs><title>Stations</title><path class="cls-1" d="M0,0V256H256V0ZM202.67,182.5a11.35,11.35,0,0,1-11.35-11.35,11.08,11.08,0,0,1,.21-2.09l-28.25-16.31A43,43,0,0,1,131.93,171v32.23a11.34,11.34,0,1,1-7.85,0V171A43,43,0,0,1,92.9,153L65.21,169a11.08,11.08,0,0,1,.19,2,11.4,11.4,0,1,1-4.17-8.77l27.73-16A42.89,42.89,0,0,1,89,109.88L61.43,93.95a11.33,11.33,0,1,1,4-8.6,11,11,0,0,1-.15,1.74L93,103.1a43,43,0,0,1,31.1-17.86V53a11.35,11.35,0,1,1,7.85,0V85.23a43,43,0,0,1,31.28,18.09l27.94-16.13a11.06,11.06,0,0,1-.16-1.84A11.4,11.4,0,1,1,195,94l-27.91,16.11a42.91,42.91,0,0,1,.06,35.82l28.38,16.39a11.34,11.34,0,1,1,7.1,20.17Z"/><path class="cls-1" d="M111.65,126.7l5.74,5.69a15.67,15.67,0,0,1,21.53.06l5.73-5.68a23.52,23.52,0,0,0-33-.07Z"/><ellipse class="cls-1" cx="128.3" cy="143.29" rx="8.09" ry="8.01"/><path class="cls-1" d="M100.65,115.9l5.74,5.69a31.34,31.34,0,0,1,43.53.1l5.73-5.68a39.2,39.2,0,0,0-55-.11Z"/></svg>